<svg width="12" height="16" viewBox="0 0 12 16" fill="none" xmlns="http://www.w3.org/2000/svg">
<g opacity="0.3">
<path d="M0.638485 5.09805C0.569006 5.17667 0.513881 5.27007 0.476269 5.37289C0.438657 5.47571 0.419296 5.58595 0.419296 5.69727C0.419296 5.8086 0.438657 5.91883 0.476269 6.02165C0.513881 6.12448 0.569006 6.21787 0.638485 6.29649L5.59843 11.9231C5.65365 11.9859 5.71924 12.0357 5.79144 12.0696C5.86364 12.1036 5.94105 12.1211 6.01922 12.1211C6.09739 12.1211 6.17479 12.1036 6.247 12.0696C6.3192 12.0357 6.38479 11.9859 6.44001 11.9231L11.4 6.29649C11.6924 5.96472 11.6924 5.42982 11.4 5.09805C11.1075 4.76628 10.8004 5.04112 10.5079 5.37289L7.90792 8.3364L5.99995 10.4241L1.19996 5.09079C1.19996 5.09079 0.92498 4.76628 0.638485 5.09805Z" fill="black"/>
</g>
</svg>
