<svg width="13" height="11" viewBox="0 0 13 11" fill="none" xmlns="http://www.w3.org/2000/svg">
<path d="M3.25536 0.319092C4.94813 0.319092 6.31919 1.66335 6.31919 3.32165C6.31919 1.66335 7.69025 0.319092 9.38302 0.319092C11.0758 0.319092 12.4469 1.66335 12.4469 3.32165C12.4469 5.82097 9.96974 6.70258 6.61945 10.681C6.58256 10.7247 6.53658 10.7598 6.48472 10.7839C6.43286 10.808 6.37637 10.8204 6.31919 10.8204C6.26201 10.8204 6.20552 10.808 6.15366 10.7839C6.1018 10.7598 6.05582 10.7247 6.01893 10.681C2.66864 6.70258 0.191528 5.82097 0.191528 3.32165C0.191528 1.66335 1.56259 0.319092 3.25536 0.319092Z" fill="#F02323"/>
</svg>
