<svg width="13" height="11" viewBox="0 0 13 11" fill="none" xmlns="http://www.w3.org/2000/svg">
<path fill-rule="evenodd" clip-rule="evenodd" d="M6.31919 4.27694L7.00396 2.90705C7.174 2.56783 7.46889 2.08006 7.88634 1.68571C8.29689 1.29749 8.78864 1.03331 9.38302 1.03331C10.6668 1.03331 11.6809 2.04867 11.6809 3.26924C11.6809 4.19654 11.2566 4.85124 10.2501 5.84976C9.99196 6.10551 9.69783 6.38194 9.3723 6.6867C8.52362 7.48306 7.46813 8.47391 6.31919 9.79863C5.17025 8.47391 4.11476 7.48306 3.26608 6.6867C2.94055 6.38194 2.64566 6.10474 2.38829 5.84976C1.38183 4.85124 0.957486 4.19654 0.957486 3.26924C0.957486 2.04867 1.97161 1.03331 3.25536 1.03331C3.84974 1.03331 4.34149 1.29749 4.75204 1.68571C5.16949 2.08006 5.46438 2.56783 5.63442 2.90705L6.31919 4.27694ZM6.61945 10.6264C6.58256 10.6701 6.53658 10.7052 6.48472 10.7293C6.43286 10.7533 6.37637 10.7658 6.31919 10.7658C6.26201 10.7658 6.20552 10.7533 6.15366 10.7293C6.1018 10.7052 6.05582 10.6701 6.01893 10.6264C4.79264 9.16996 3.68276 8.12857 2.76898 7.27172C1.18727 5.78697 0.191528 4.85354 0.191528 3.26924C0.191528 1.61144 1.56259 0.267578 3.25536 0.267578C4.48089 0.267578 5.338 1.0716 5.86268 1.80517C6.06183 2.08466 6.21349 2.35343 6.31919 2.56477C6.4517 2.30027 6.60431 2.04632 6.7757 1.80517C7.30038 1.07083 8.15749 0.267578 9.38302 0.267578C11.0758 0.267578 12.4469 1.61144 12.4469 3.26924C12.4469 4.85354 11.4511 5.78697 9.8694 7.27172C8.95562 8.12934 7.84574 9.17073 6.61945 10.6256V10.6264Z" fill="#192144"/>
</svg>
