<svg width="60" height="60" viewBox="0 0 60 60" fill="none" xmlns="http://www.w3.org/2000/svg">
<path fill-rule="evenodd" clip-rule="evenodd" d="M23 0.821041C9.80786 3.97423 0 15.8417 0 30C0 46.5685 13.4315 60 30 60C46.5685 60 60 46.5685 60 30C60 13.4315 46.5685 0 30 0C29.3279 0 28.661 0.0220987 28 0.0656091V4.07578C28.6601 4.02557 29.3271 4 30 4C44.3594 4 56 15.6406 56 30C56 44.3594 44.3594 56 30 56C15.6406 56 4 44.3594 4 30C4 18.0658 12.0406 8.0096 23 4.95317V0.821041Z" fill="#FF8D30"/>
</svg>
