<svg width="17" height="29" viewBox="0 0 17 29" fill="none" xmlns="http://www.w3.org/2000/svg">
<path d="M15.8478 0.596313C15.6758 0.422613 15.4715 0.284801 15.2465 0.190771C15.0216 0.0967409 14.7805 0.0483398 14.537 0.0483398C14.2934 0.0483398 14.0523 0.0967409 13.8274 0.190771C13.6024 0.284801 13.3981 0.422613 13.2262 0.596313L0.917995 12.9962C0.780689 13.1342 0.671756 13.2982 0.597431 13.4787C0.523106 13.6592 0.484848 13.8527 0.484848 14.0481C0.484848 14.2436 0.523106 14.4371 0.597431 14.6176C0.671756 14.7981 0.780689 14.9621 0.917995 15.1001L13.2262 27.5C13.9519 28.2311 15.122 28.2311 15.8478 27.5C16.5735 26.7688 15.9723 26.0011 15.2465 25.2699L8.76387 18.7699L4.19697 14L15.8636 2C15.8636 2 16.5735 1.31255 15.8478 0.596313Z" fill="black"/>
</svg>
