<svg width="17" height="30" viewBox="0 0 17 30" fill="none" xmlns="http://www.w3.org/2000/svg">
<path d="M0.967412 29.1127C1.13939 29.2922 1.3437 29.4346 1.56863 29.5318C1.79355 29.6289 2.03469 29.679 2.27821 29.679C2.52174 29.679 2.76287 29.6289 2.9878 29.5318C3.21272 29.4346 3.41703 29.2922 3.58901 29.1127L15.8972 16.2995C16.0345 16.1569 16.1434 15.9874 16.2177 15.8009C16.2921 15.6144 16.3303 15.4144 16.3303 15.2125C16.3303 15.0106 16.2921 14.8106 16.2177 14.6241C16.1434 14.4375 16.0345 14.2681 15.8972 14.1255L3.58901 1.31227C2.86326 0.556738 1.69316 0.556738 0.967412 1.31227C0.241659 2.0678 1.41061 3.37782 2.13637 4.13335L12.7424 15.2125L1.56863 26.8667C0.857684 27.6068 0.241659 28.3726 0.967412 29.1127Z" fill="black"/>
</svg>
